<svg width="25" height="24" viewBox="0 0 25 24" fill="none" xmlns="http://www.w3.org/2000/svg">
<mask id="mask0_2057_15008" style="mask-type:alpha" maskUnits="userSpaceOnUse" x="0" y="0" width="25" height="24">
<rect x="0.200195" width="24" height="24" fill="#D9D9D9"/>
</mask>
<g mask="url(#mask0_2057_15008)">
<path d="M9.7002 16C7.88353 16 6.34603 15.3708 5.0877 14.1125C3.82936 12.8542 3.2002 11.3167 3.2002 9.5C3.2002 7.68333 3.82936 6.14583 5.0877 4.8875C6.34603 3.62917 7.88353 3 9.7002 3C11.5169 3 13.0544 3.62917 14.3127 4.8875C15.571 6.14583 16.2002 7.68333 16.2002 9.5C16.2002 10.2333 16.0835 10.925 15.8502 11.575C15.6169 12.225 15.3002 12.8 14.9002 13.3L20.5002 18.9C20.6835 19.0833 20.7752 19.3167 20.7752 19.6C20.7752 19.8833 20.6835 20.1167 20.5002 20.3C20.3169 20.4833 20.0835 20.575 19.8002 20.575C19.5169 20.575 19.2835 20.4833 19.1002 20.3L13.5002 14.7C13.0002 15.1 12.4252 15.4167 11.7752 15.65C11.1252 15.8833 10.4335 16 9.7002 16ZM9.7002 14C10.9502 14 12.0127 13.5625 12.8877 12.6875C13.7627 11.8125 14.2002 10.75 14.2002 9.5C14.2002 8.25 13.7627 7.1875 12.8877 6.3125C12.0127 5.4375 10.9502 5 9.7002 5C8.4502 5 7.3877 5.4375 6.5127 6.3125C5.6377 7.1875 5.2002 8.25 5.2002 9.5C5.2002 10.75 5.6377 11.8125 6.5127 12.6875C7.3877 13.5625 8.4502 14 9.7002 14Z" fill="#B3B3B3"/>
</g>
</svg>
