<svg width="24" height="24" viewBox="0 0 24 24" fill="none" xmlns="http://www.w3.org/2000/svg">
<path d="M21.0811 2.18789C20.3723 2.0658 19.6545 2.00295 18.9352 2C16.4813 1.99799 14.0785 2.70167 12.0133 4.02716C9.94274 2.71907 7.54031 2.03267 5.09126 2.04945C4.37201 2.05239 3.65426 2.11524 2.94544 2.23733C2.71327 2.27736 2.50301 2.39897 2.35254 2.58026C2.20207 2.76155 2.12127 2.99061 2.12469 3.22619V15.0925C2.12257 15.2378 2.15251 15.3817 2.21235 15.5141C2.2722 15.6466 2.3605 15.7642 2.47096 15.8586C2.58143 15.953 2.71134 16.0219 2.85146 16.0604C2.99158 16.0989 3.13846 16.106 3.28165 16.0813C4.6987 15.836 6.15053 15.8767 7.5516 16.201C8.95268 16.5254 10.2747 17.1269 11.4397 17.97L11.5584 18.0393H11.6672C11.7768 18.0849 11.8945 18.1085 12.0133 18.1085C12.1321 18.1085 12.2497 18.0849 12.3594 18.0393H12.4681L12.5868 17.97C13.7437 17.108 15.0619 16.4871 16.4633 16.144C17.8646 15.8008 19.3206 15.7426 20.7449 15.9725C20.8881 15.9973 21.0349 15.9901 21.1751 15.9516C21.3152 15.9131 21.4451 15.8442 21.5555 15.7498C21.666 15.6554 21.7543 15.5378 21.8142 15.4054C21.874 15.273 21.9039 15.129 21.9018 14.9837V3.11741C21.8915 2.8921 21.8045 2.67708 21.6552 2.50802C21.506 2.33895 21.3034 2.22599 21.0811 2.18789ZM11.0244 15.3298C9.1949 14.3673 7.15848 13.865 5.09126 13.8663C4.76494 13.8663 4.43862 13.8663 4.10241 13.8663V3.97772C4.43175 3.95874 4.76192 3.95874 5.09126 3.97772C7.20087 3.97539 9.26445 4.59446 11.0244 5.75766V15.3298ZM19.9241 13.9058C19.5879 13.9058 19.2616 13.9058 18.9352 13.9058C16.868 13.9046 14.8316 14.4069 13.0021 15.3693V5.75766C14.7621 4.59446 16.8256 3.97539 18.9352 3.97772C19.2646 3.95874 19.5948 3.95874 19.9241 3.97772V13.9058ZM21.0811 18.0096C20.3723 17.8875 19.6545 17.8247 18.9352 17.8217C16.4813 17.8197 14.0785 18.5234 12.0133 19.8489C9.94804 18.5234 7.54524 17.8197 5.09126 17.8217C4.37201 17.8247 3.65426 17.8875 2.94544 18.0096C2.81672 18.03 2.69331 18.0757 2.5823 18.144C2.47129 18.2123 2.37487 18.3018 2.2986 18.4075C2.22232 18.5132 2.16769 18.6329 2.13785 18.7598C2.108 18.8867 2.10353 19.0182 2.12469 19.1468C2.17495 19.4036 2.32493 19.63 2.54178 19.7764C2.75864 19.9228 3.02469 19.9773 3.28165 19.928C4.6987 19.6826 6.15053 19.7233 7.5516 20.0477C8.95268 20.3721 10.2747 20.9735 11.4397 21.8167C11.6072 21.9359 11.8077 22 12.0133 22C12.2188 22 12.4193 21.9359 12.5868 21.8167C13.7518 20.9735 15.0738 20.3721 16.4749 20.0477C17.876 19.7233 19.3278 19.6826 20.7449 19.928C21.0018 19.9773 21.2679 19.9228 21.4847 19.7764C21.7016 19.63 21.8516 19.4036 21.9018 19.1468C21.923 19.0182 21.9185 18.8867 21.8887 18.7598C21.8588 18.6329 21.8042 18.5132 21.7279 18.4075C21.6516 18.3018 21.5552 18.2123 21.4442 18.144C21.3332 18.0757 21.2098 18.03 21.0811 18.0096Z" fill="#B3B3B3"/>
</svg>
