<svg width="24" height="24" viewBox="0 0 24 24" fill="none" xmlns="http://www.w3.org/2000/svg">
<g clip-path="url(#clip0_2527_4293)">
<path d="M9 16.25V17C9 17.7956 9.31607 18.5587 9.87868 19.1213C10.4413 19.6839 11.2044 20 12 20C12.7956 20 13.5587 19.6839 14.1213 19.1213C14.6839 18.5587 15 17.7956 15 17V16.25" stroke="#B3B3B3" stroke-width="2" stroke-linecap="round" stroke-linejoin="round"/>
<path d="M5.25013 8.75C5.25013 6.95979 5.96129 5.2429 7.22716 3.97703C8.49303 2.71116 10.2099 2 12.0001 2C13.7903 2 15.5072 2.71116 16.7731 3.97703C18.039 5.2429 18.7501 6.95979 18.7501 8.75C18.7501 12.1081 19.5283 14.0563 20.147 15.125C20.2127 15.2388 20.2474 15.3679 20.2475 15.4993C20.2476 15.6308 20.2132 15.7599 20.1477 15.8739C20.0822 15.9878 19.9878 16.0825 19.8742 16.1485C19.7606 16.2145 19.6316 16.2495 19.5001 16.25H4.50013C4.36886 16.2492 4.2401 16.214 4.12671 16.1478C4.01332 16.0817 3.91928 15.9869 3.85399 15.8731C3.7887 15.7592 3.75444 15.6301 3.75464 15.4989C3.75484 15.3676 3.78949 15.2387 3.85513 15.125C4.47294 14.0563 5.25013 12.1072 5.25013 8.75Z" stroke="#B3B3B3" stroke-width="2" stroke-linecap="round" stroke-linejoin="round"/>
</g>
<defs>
<clipPath id="clip0_2527_4293">
<rect width="24" height="24" fill="white"/>
</clipPath>
</defs>
</svg>
