<svg width="16" height="16" viewBox="0 0 16 16" fill="none" xmlns="http://www.w3.org/2000/svg">
<path d="M14.1001 1.90675C13.8454 1.64713 13.5224 1.4649 13.1685 1.38114C12.8145 1.29738 12.4441 1.3155 12.1001 1.43342L2.66674 4.58675C2.28628 4.71129 1.95387 4.95085 1.71538 5.27238C1.47689 5.5939 1.34408 5.98153 1.3353 6.38176C1.32652 6.78198 1.4422 7.17506 1.66636 7.50674C1.89052 7.83841 2.21211 8.09232 2.58674 8.23342L6.08007 9.56675C6.15962 9.59717 6.23205 9.64365 6.29284 9.7033C6.35363 9.76294 6.40148 9.83447 6.43341 9.91342L7.76674 13.4134C7.90246 13.7828 8.14875 14.1013 8.47205 14.3255C8.79535 14.5498 9.17994 14.669 9.57341 14.6668H9.62007C10.0208 14.6595 10.4091 14.527 10.7307 14.2879C11.0523 14.0488 11.291 13.715 11.4134 13.3334L14.5667 3.88675C14.6814 3.54605 14.6985 3.18005 14.616 2.83014C14.5336 2.48024 14.3548 2.16039 14.1001 1.90675ZM13.3334 3.46675L10.1467 12.9201C10.1097 13.0397 10.0354 13.1444 9.93466 13.2188C9.83389 13.2931 9.71198 13.3333 9.58674 13.3334C9.46224 13.3355 9.34007 13.2996 9.23647 13.2305C9.13287 13.1614 9.05274 13.0625 9.00674 12.9468L7.67341 9.44675C7.57674 9.19244 7.42767 8.9613 7.23586 8.76834C7.04405 8.57539 6.81381 8.42494 6.56007 8.32675L3.06007 6.99342C2.942 6.95016 2.84051 6.87089 2.76993 6.76681C2.69935 6.66274 2.66325 6.53912 2.66674 6.41342C2.66684 6.28818 2.70702 6.16627 2.78139 6.0655C2.85576 5.96474 2.96043 5.89042 3.08007 5.85342L12.5334 2.70009C12.6419 2.65585 12.761 2.644 12.8761 2.66597C12.9912 2.68794 13.0975 2.74279 13.1821 2.82388C13.2668 2.90497 13.3261 3.00884 13.3529 3.12293C13.3798 3.23702 13.373 3.35644 13.3334 3.46675Z" fill="white" fill-opacity="0.8"/>
</svg>
