<svg width="24" height="24" viewBox="0 0 24 24" fill="none" xmlns="http://www.w3.org/2000/svg">
<path d="M19 5.5H16V4.5C16 3.70435 15.6839 2.94129 15.1213 2.37868C14.5587 1.81607 13.7956 1.5 13 1.5H11C10.2044 1.5 9.44129 1.81607 8.87868 2.37868C8.31607 2.94129 8 3.70435 8 4.5V5.5H5C4.20435 5.5 3.44129 5.81607 2.87868 6.37868C2.31607 6.94129 2 7.70435 2 8.5V17.5C2 18.2956 2.31607 19.0587 2.87868 19.6213C3.44129 20.1839 4.20435 20.5 5 20.5H19C19.7956 20.5 20.5587 20.1839 21.1213 19.6213C21.6839 19.0587 22 18.2956 22 17.5V8.5C22 7.70435 21.6839 6.94129 21.1213 6.37868C20.5587 5.81607 19.7956 5.5 19 5.5ZM10 4.5C10 4.23478 10.1054 3.98043 10.2929 3.79289C10.4804 3.60536 10.7348 3.5 11 3.5H13C13.2652 3.5 13.5196 3.60536 13.7071 3.79289C13.8946 3.98043 14 4.23478 14 4.5V5.5H10V4.5ZM20 17.5C20 17.7652 19.8946 18.0196 19.7071 18.2071C19.5196 18.3946 19.2652 18.5 19 18.5H5C4.73478 18.5 4.48043 18.3946 4.29289 18.2071C4.10536 18.0196 4 17.7652 4 17.5V12C6.54626 13.0101 9.26069 13.5293 12 13.53C14.7392 13.5283 17.4535 13.0092 20 12V17.5ZM20 9.81C17.4784 10.9178 14.7542 11.4898 12 11.4898C9.24579 11.4898 6.5216 10.9178 4 9.81V8.5C4 8.23478 4.10536 7.98043 4.29289 7.79289C4.48043 7.60536 4.73478 7.5 5 7.5H19C19.2652 7.5 19.5196 7.60536 19.7071 7.79289C19.8946 7.98043 20 8.23478 20 8.5V9.81Z" fill="#B3B3B3"/>
</svg>
