<svg width="25" height="24" viewBox="0 0 25 24" fill="none" xmlns="http://www.w3.org/2000/svg">
<mask id="mask0_2057_15006" style="mask-type:alpha" maskUnits="userSpaceOnUse" x="0" y="0" width="25" height="24">
<rect x="0.400391" width="24" height="24" fill="#D9D9D9"/>
</mask>
<g mask="url(#mask0_2057_15006)">
<path d="M4.40039 19V10C4.40039 9.68333 4.47122 9.38333 4.61289 9.1C4.75456 8.81667 4.95039 8.58333 5.20039 8.4L11.2004 3.9C11.5504 3.63333 11.9504 3.5 12.4004 3.5C12.8504 3.5 13.2504 3.63333 13.6004 3.9L19.6004 8.4C19.8504 8.58333 20.0462 8.81667 20.1879 9.1C20.3296 9.38333 20.4004 9.68333 20.4004 10V19C20.4004 19.55 20.2046 20.0208 19.8129 20.4125C19.4212 20.8042 18.9504 21 18.4004 21H15.4004C15.1171 21 14.8796 20.9042 14.6879 20.7125C14.4962 20.5208 14.4004 20.2833 14.4004 20V15C14.4004 14.7167 14.3046 14.4792 14.1129 14.2875C13.9212 14.0958 13.6837 14 13.4004 14H11.4004C11.1171 14 10.8796 14.0958 10.6879 14.2875C10.4962 14.4792 10.4004 14.7167 10.4004 15V20C10.4004 20.2833 10.3046 20.5208 10.1129 20.7125C9.92122 20.9042 9.68372 21 9.40039 21H6.40039C5.85039 21 5.37956 20.8042 4.98789 20.4125C4.59622 20.0208 4.40039 19.55 4.40039 19Z" fill="white"/>
</g>
</svg>
