<svg width="24" height="24" viewBox="0 0 24 24" fill="none" xmlns="http://www.w3.org/2000/svg">
<mask id="mask0_2057_15010" style="mask-type:alpha" maskUnits="userSpaceOnUse" x="0" y="0" width="24" height="24">
<rect width="24" height="24" fill="#D9D9D9"/>
</mask>
<g mask="url(#mask0_2057_15010)">
<path d="M4 22C3.45 22 2.97917 21.8042 2.5875 21.4125C2.19583 21.0208 2 20.55 2 20V10C2 9.45 2.19583 8.97917 2.5875 8.5875C2.97917 8.19583 3.45 8 4 8H20C20.55 8 21.0208 8.19583 21.4125 8.5875C21.8042 8.97917 22 9.45 22 10V20C22 20.55 21.8042 21.0208 21.4125 21.4125C21.0208 21.8042 20.55 22 20 22H4ZM4 20H20V10H4V20ZM10.775 18.475L15.375 15.425C15.525 15.325 15.6 15.1833 15.6 15C15.6 14.8167 15.525 14.675 15.375 14.575L10.775 11.525C10.6083 11.4083 10.4375 11.3958 10.2625 11.4875C10.0875 11.5792 10 11.725 10 11.925V18.075C10 18.275 10.0875 18.4208 10.2625 18.5125C10.4375 18.6042 10.6083 18.5917 10.775 18.475ZM5 7C4.71667 7 4.47917 6.90417 4.2875 6.7125C4.09583 6.52083 4 6.28333 4 6C4 5.71667 4.09583 5.47917 4.2875 5.2875C4.47917 5.09583 4.71667 5 5 5H19C19.2833 5 19.5208 5.09583 19.7125 5.2875C19.9042 5.47917 20 5.71667 20 6C20 6.28333 19.9042 6.52083 19.7125 6.7125C19.5208 6.90417 19.2833 7 19 7H5ZM8 4C7.71667 4 7.47917 3.90417 7.2875 3.7125C7.09583 3.52083 7 3.28333 7 3C7 2.71667 7.09583 2.47917 7.2875 2.2875C7.47917 2.09583 7.71667 2 8 2H16C16.2833 2 16.5208 2.09583 16.7125 2.2875C16.9042 2.47917 17 2.71667 17 3C17 3.28333 16.9042 3.52083 16.7125 3.7125C16.5208 3.90417 16.2833 4 16 4H8Z" fill="#B3B3B3"/>
</g>
</svg>
