<svg width="12" height="12" viewBox="0 0 12 12" fill="none" xmlns="http://www.w3.org/2000/svg">
<path d="M10.1484 2.89793L6.39844 6.64793C6.34618 6.70037 6.28408 6.74198 6.21571 6.77037C6.14734 6.79876 6.07403 6.81337 6 6.81337C5.92597 6.81337 5.85266 6.79876 5.78429 6.77037C5.71592 6.74198 5.65382 6.70037 5.60156 6.64793L1.85156 2.89793C1.74589 2.79226 1.68652 2.64893 1.68652 2.49949C1.68652 2.35005 1.74589 2.20673 1.85156 2.10105C1.95723 1.99538 2.10056 1.93602 2.25 1.93602C2.39944 1.93602 2.54276 1.99538 2.64844 2.10105L6.00047 5.45308L9.3525 2.10059C9.45817 1.99491 9.60149 1.93555 9.75094 1.93555C9.90038 1.93555 10.0437 1.99491 10.1494 2.10059C10.255 2.20626 10.3144 2.34958 10.3144 2.49902C10.3144 2.64847 10.255 2.79179 10.1494 2.89746L10.1484 2.89793Z" fill="white" fill-opacity="0.8"/>
</svg>
