<svg width="25" height="24" viewBox="0 0 25 24" fill="none" xmlns="http://www.w3.org/2000/svg">
<mask id="mask0_2057_15014" style="mask-type:alpha" maskUnits="userSpaceOnUse" x="0" y="0" width="25" height="24">
<rect x="0.800781" width="24" height="24" fill="#B1B1B1"/>
</mask>
<g mask="url(#mask0_2057_15014)">
<path d="M4.80078 19V17H6.80078V10C6.80078 8.61667 7.21745 7.3875 8.05078 6.3125C8.88411 5.2375 9.96745 4.53333 11.3008 4.2V3.5C11.3008 3.08333 11.4466 2.72917 11.7383 2.4375C12.0299 2.14583 12.3841 2 12.8008 2C13.2174 2 13.5716 2.14583 13.8633 2.4375C14.1549 2.72917 14.3008 3.08333 14.3008 3.5V4.2C15.6341 4.53333 16.7174 5.2375 17.5508 6.3125C18.3841 7.3875 18.8008 8.61667 18.8008 10V17H20.8008V19H4.80078ZM12.8008 22C12.2508 22 11.7799 21.8042 11.3883 21.4125C10.9966 21.0208 10.8008 20.55 10.8008 20H14.8008C14.8008 20.55 14.6049 21.0208 14.2133 21.4125C13.8216 21.8042 13.3508 22 12.8008 22ZM8.80078 17H16.8008V10C16.8008 8.9 16.4091 7.95833 15.6258 7.175C14.8424 6.39167 13.9008 6 12.8008 6C11.7008 6 10.7591 6.39167 9.97578 7.175C9.19245 7.95833 8.80078 8.9 8.80078 10V17Z" fill="#B3B3B3"/>
</g>
</svg>
