<svg width="25" height="24" viewBox="0 0 25 24" fill="none" xmlns="http://www.w3.org/2000/svg">
<mask id="mask0_2057_15018" style="mask-type:alpha" maskUnits="userSpaceOnUse" x="0" y="0" width="25" height="24">
<rect x="0.600586" width="24" height="24" fill="#B1B1B1"/>
</mask>
<g mask="url(#mask0_2057_15018)">
<path d="M4.60059 21C4.05059 21 3.57975 20.8042 3.18809 20.4125C2.79642 20.0208 2.60059 19.55 2.60059 19V8C2.60059 7.45 2.79642 6.97917 3.18809 6.5875C3.57975 6.19583 4.05059 6 4.60059 6H8.60059V4C8.60059 3.45 8.79642 2.97917 9.18809 2.5875C9.57975 2.19583 10.0506 2 10.6006 2H14.6006C15.1506 2 15.6214 2.19583 16.0131 2.5875C16.4048 2.97917 16.6006 3.45 16.6006 4V6H20.6006C21.1506 6 21.6214 6.19583 22.0131 6.5875C22.4048 6.97917 22.6006 7.45 22.6006 8V19C22.6006 19.55 22.4048 20.0208 22.0131 20.4125C21.6214 20.8042 21.1506 21 20.6006 21H4.60059ZM4.60059 19H20.6006V8H4.60059V19ZM10.6006 6H14.6006V4H10.6006V6Z" fill="#B3B3B3"/>
</g>
</svg>
