<svg width="24" height="24" viewBox="0 0 24 24" fill="none" xmlns="http://www.w3.org/2000/svg">
<path d="M21.5475 18.8982L18.0224 15.4017C19.3907 13.6956 20.0534 11.53 19.8741 9.35039C19.6948 7.17073 18.6872 5.1426 17.0585 3.68303C15.4298 2.22346 13.3038 1.44338 11.1176 1.5032C8.93135 1.56303 6.85116 2.4582 5.3047 4.00465C3.75825 5.55111 2.86307 7.6313 2.80325 9.8175C2.74343 12.0037 3.5235 14.1297 4.98308 15.7585C6.44265 17.3872 8.47078 18.3948 10.6504 18.574C12.8301 18.7533 14.9956 18.0907 16.7017 16.7224L20.1983 20.2189C20.2866 20.308 20.3917 20.3787 20.5075 20.4269C20.6233 20.4752 20.7475 20.5 20.8729 20.5C20.9983 20.5 21.1225 20.4752 21.2383 20.4269C21.3541 20.3787 21.4592 20.308 21.5475 20.2189C21.7188 20.0418 21.8145 19.805 21.8145 19.5586C21.8145 19.3122 21.7188 19.0754 21.5475 18.8982ZM11.3713 16.7224C10.0559 16.7224 8.76993 16.3323 7.67617 15.6015C6.5824 14.8706 5.72991 13.8319 5.22651 12.6165C4.7231 11.4012 4.59139 10.0639 4.84802 8.77371C5.10465 7.48352 5.73811 6.29841 6.66828 5.36823C7.59846 4.43806 8.78357 3.80461 10.0738 3.54797C11.3639 3.29134 12.7013 3.42305 13.9166 3.92646C15.1319 4.42986 16.1707 5.28235 16.9015 6.37612C17.6323 7.46989 18.0224 8.75581 18.0224 10.0713C18.0224 11.8353 17.3217 13.527 16.0744 14.7743C14.827 16.0216 13.1353 16.7224 11.3713 16.7224Z" fill="#B3B3B3"/>
</svg>
