<svg width="24" height="24" viewBox="0 0 24 24" fill="none" xmlns="http://www.w3.org/2000/svg">
<path d="M21 3H7C6.4 3 6 3.4 6 4V7H3C2.4 7 2 7.4 2 8V18C2 19.7 3.3 21 5 21H18C20.2 21 22 19.2 22 17V4C22 3.4 21.6 3 21 3ZM6 18C6 18.6 5.6 19 5 19C4.4 19 4 18.6 4 18V9H6V18ZM12 17H11C10.4 17 10 16.6 10 16C10 15.4 10.4 15 11 15H12C12.6 15 13 15.4 13 16C13 16.6 12.6 17 12 17ZM12 13H11C10.4 13 10 12.6 10 12C10 11.4 10.4 11 11 11H12C12.6 11 13 11.4 13 12C13 12.6 12.6 13 12 13ZM17 17H16C15.4 17 15 16.6 15 16C15 15.4 15.4 15 16 15H17C17.6 15 18 15.4 18 16C18 16.6 17.6 17 17 17ZM17 13H16C15.4 13 15 12.6 15 12C15 11.4 15.4 11 16 11H17C17.6 11 18 11.4 18 12C18 12.6 17.6 13 17 13ZM17 9H11C10.4 9 10 8.6 10 8C10 7.4 10.4 7 11 7H17C17.6 7 18 7.4 18 8C18 8.6 17.6 9 17 9Z" fill="white"/>
</svg>
