<svg width="24" height="25" viewBox="0 0 24 25" fill="none" xmlns="http://www.w3.org/2000/svg">
<mask id="mask0_2410_2110" style="mask-type:alpha" maskUnits="userSpaceOnUse" x="0" y="0" width="24" height="25">
<rect y="0.5" width="24" height="24" fill="#D9D9D9"/>
</mask>
<g mask="url(#mask0_2410_2110)">
<path d="M12 23.4498C11.7167 23.4498 11.4792 23.354 11.2875 23.1623C11.0959 22.9706 11 22.7331 11 22.4498V21.4498C8.91672 21.2165 7.12922 20.354 5.63755 18.8623C4.14588 17.3706 3.28338 15.5831 3.05005 13.4998H2.05005C1.76672 13.4998 1.52922 13.404 1.33755 13.2123C1.14588 13.0206 1.05005 12.7831 1.05005 12.4998C1.05005 12.2165 1.14588 11.979 1.33755 11.7873C1.52922 11.5956 1.76672 11.4998 2.05005 11.4998H3.05005C3.28338 9.41647 4.14588 7.62897 5.63755 6.1373C7.12922 4.64564 8.91672 3.78314 11 3.5498V2.5498C11 2.26647 11.0959 2.02897 11.2875 1.8373C11.4792 1.64564 11.7167 1.5498 12 1.5498C12.2834 1.5498 12.5209 1.64564 12.7125 1.8373C12.9042 2.02897 13 2.26647 13 2.5498V3.5498C15.0834 3.78314 16.8709 4.64564 18.3625 6.1373C19.8542 7.62897 20.7167 9.41647 20.95 11.4998H21.95C22.2334 11.4998 22.4709 11.5956 22.6625 11.7873C22.8542 11.979 22.95 12.2165 22.95 12.4998C22.95 12.7831 22.8542 13.0206 22.6625 13.2123C22.4709 13.404 22.2334 13.4998 21.95 13.4998H20.95C20.7167 15.5831 19.8542 17.3706 18.3625 18.8623C16.8709 20.354 15.0834 21.2165 13 21.4498V22.4498C13 22.7331 12.9042 22.9706 12.7125 23.1623C12.5209 23.354 12.2834 23.4498 12 23.4498ZM12 19.4998C13.9334 19.4998 15.5834 18.8165 16.95 17.4498C18.3167 16.0831 19 14.4331 19 12.4998C19 10.5665 18.3167 8.91647 16.95 7.5498C15.5834 6.18314 13.9334 5.4998 12 5.4998C10.0667 5.4998 8.41672 6.18314 7.05005 7.5498C5.68338 8.91647 5.00005 10.5665 5.00005 12.4998C5.00005 14.4331 5.68338 16.0831 7.05005 17.4498C8.41672 18.8165 10.0667 19.4998 12 19.4998ZM12 16.4998C10.9 16.4998 9.95838 16.1081 9.17505 15.3248C8.39172 14.5415 8.00005 13.5998 8.00005 12.4998C8.00005 11.3998 8.39172 10.4581 9.17505 9.6748C9.95838 8.89147 10.9 8.4998 12 8.4998C13.1 8.4998 14.0417 8.89147 14.825 9.6748C15.6084 10.4581 16 11.3998 16 12.4998C16 13.5998 15.6084 14.5415 14.825 15.3248C14.0417 16.1081 13.1 16.4998 12 16.4998ZM12 14.4998C12.55 14.4998 13.0209 14.304 13.4125 13.9123C13.8042 13.5206 14 13.0498 14 12.4998C14 11.9498 13.8042 11.479 13.4125 11.0873C13.0209 10.6956 12.55 10.4998 12 10.4998C11.45 10.4998 10.9792 10.6956 10.5875 11.0873C10.1959 11.479 10 11.9498 10 12.4998C10 13.0498 10.1959 13.5206 10.5875 13.9123C10.9792 14.304 11.45 14.4998 12 14.4998Z" fill="black"/>
</g>
</svg>
